<svg xmlns="http://www.w3.org/2000/svg" version="1.1" width="286.74999999999994mm" height="149.22499999999997mm" viewBox = " 0 0 1016.0441424999998 528.7504347499998" >
<!-- Front--> 
<g transform="translate(22.5000185, 22.5000185) " > 
<polygon style="stroke:#000000; fill:none; stroke-width:0.90000074" points="0, 0 46.904566124999995, 0 46.904566124999995, 11.2322927 90.97448424999999, 11.2322927 90.97448424999999, 0 120.73828824999998, 0 120.73828824999998, 11.2322927 147.66744425, 11.2322927 147.66744425, 0 177.43124825, 0 177.43124825, 11.2322927 204.36040425, 11.2322927 204.36040425, 0 234.12420824999998, 0 234.12420824999998, 11.2322927 278.194126375, 11.2322927 278.194126375, 0 325.09869249999997, 0 325.09869249999997, 33.43112985 313.86639979999995, 33.43112985 313.86639979999995, 64.0276117 325.09869249999997, 64.0276117 325.09869249999997, 97.45874154999998 313.86639979999995, 97.45874154999998 313.86639979999995, 128.0552234 325.09869249999997, 128.0552234 325.09869249999997, 161.48635324999998 278.194126375, 161.48635324999998 278.194126375, 150.25406055 234.12420824999998, 150.25406055 234.12420824999998, 161.48635324999998 204.36040425, 161.48635324999998 204.36040425, 150.25406055 177.43124825, 150.25406055 177.43124825, 161.48635324999998 147.66744425, 161.48635324999998 147.66744425, 150.25406055 120.73828824999998, 150.25406055 120.73828824999998, 161.48635324999998 90.97448424999999, 161.48635324999998 90.97448424999999, 150.25406055 46.904566124999995, 150.25406055 46.904566124999995, 161.48635324999998 0, 161.48635324999998 0, 128.0552234 11.2322927, 128.0552234 11.2322927, 97.45874154999998 0, 97.45874154999998 0, 64.0276117 11.2322927, 64.0276117 11.2322927, 33.43112985 0, 33.43112985 "/> 
 <rect x="56.25004625" y="0.708662" width="34.015775999999995" height="41.102396" rx="0.1771655" ry="0.1771655" style="stroke:#000000;stroke-width:0.90000074;fill:none" /> 
 <rect x="233.41554625" y="0.708662" width="34.015775999999995" height="41.102396" rx="0.1771655" ry="0.1771655" style="stroke:#000000;stroke-width:0.90000074;fill:none" /> 
 <circle cx="120.31309105" cy="18.26576305" r="2.5688997500000004" style="stroke:#000000;stroke-width:0.90000074;fill:none" /> 
 <circle cx="203.36827745000002" cy="18.26576305" r="2.5688997500000004" style="stroke:#000000;stroke-width:0.90000074;fill:none" /> 
</g>
<!-- Back--> 
<g transform="translate(347.598711, 22.5000185) " > 
<polygon style="stroke:#000000; fill:none; stroke-width:0.90000074" points="0, 0 46.904566124999995, 0 46.904566124999995, 11.2322927 90.97448424999999, 11.2322927 90.97448424999999, 0 120.73828824999998, 0 120.73828824999998, 11.2322927 147.66744425, 11.2322927 147.66744425, 0 177.43124825, 0 177.43124825, 11.2322927 204.36040425, 11.2322927 204.36040425, 0 234.12420824999998, 0 234.12420824999998, 11.2322927 278.194126375, 11.2322927 278.194126375, 0 325.09869249999997, 0 325.09869249999997, 33.43112985 313.86639979999995, 33.43112985 313.86639979999995, 64.0276117 325.09869249999997, 64.0276117 325.09869249999997, 97.45874154999998 313.86639979999995, 97.45874154999998 313.86639979999995, 128.0552234 325.09869249999997, 128.0552234 325.09869249999997, 161.48635324999998 278.194126375, 161.48635324999998 278.194126375, 150.25406055 234.12420824999998, 150.25406055 234.12420824999998, 161.48635324999998 204.36040425, 161.48635324999998 204.36040425, 150.25406055 177.43124825, 150.25406055 177.43124825, 161.48635324999998 147.66744425, 161.48635324999998 147.66744425, 150.25406055 120.73828824999998, 150.25406055 120.73828824999998, 161.48635324999998 90.97448424999999, 161.48635324999998 90.97448424999999, 150.25406055 46.904566124999995, 150.25406055 46.904566124999995, 161.48635324999998 0, 161.48635324999998 0, 128.0552234 11.2322927, 128.0552234 11.2322927, 97.45874154999998 0, 97.45874154999998 0, 64.0276117 11.2322927, 64.0276117 11.2322927, 33.43112985 0, 33.43112985 "/> 
 <rect x="29.763803999999993" y="70.42328625" width="34.015775999999995" height="9.921268000000001" rx="0.1771655" ry="0.1771655" style="stroke:#000000;stroke-width:0.90000074;fill:none" /> 
 <rect x="135.95680470000002" y="70.42328625" width="34.015775999999995" height="9.921268000000001" rx="0.1771655" ry="0.1771655" style="stroke:#000000;stroke-width:0.90000074;fill:none" /> 
 <rect x="144.83279625" y="0.708662" width="34.015775999999995" height="41.102396" rx="0.1771655" ry="0.1771655" style="stroke:#000000;stroke-width:0.90000074;fill:none" /> 
 <circle cx="70.86619999999999" cy="19.665370499999998" r="2.5688997500000004" style="stroke:#000000;stroke-width:0.90000074;fill:none" /> 
 <circle cx="110.905603" cy="19.665370499999998" r="2.5688997500000004" style="stroke:#000000;stroke-width:0.90000074;fill:none" /> 
 <circle cx="212.77576549999998" cy="19.665370499999998" r="2.5688997500000004" style="stroke:#000000;stroke-width:0.90000074;fill:none" /> 
 <circle cx="212.77576549999998" cy="252.81516849999997" r="2.5688997500000004" style="stroke:#000000;stroke-width:0.90000074;fill:none" /> 
 <circle cx="252.81516849999997" cy="19.665370499999998" r="2.5688997500000004" style="stroke:#000000;stroke-width:0.90000074;fill:none" /> 
</g>
<!-- Left--> 
<g transform="translate(672.6974035, 22.5000185) " > 
<polygon style="stroke:#000000; fill:none; stroke-width:0.90000074" points="11.2322927, 0 46.904566124999995, 0 46.904566124999995, 11.2322927 90.97448424999999, 11.2322927 90.97448424999999, 0 120.73828824999998, 0 120.73828824999998, 11.2322927 147.66744425, 11.2322927 147.66744425, 0 177.43124825, 0 177.43124825, 11.2322927 204.36040425, 11.2322927 204.36040425, 0 234.12420824999998, 0 234.12420824999998, 11.2322927 278.194126375, 11.2322927 278.194126375, 0 313.86639979999995, 0 313.86639979999995, 32.01380585 325.09869249999997, 32.01380585 325.09869249999997, 65.44493569999999 313.86639979999995, 65.44493569999999 313.86639979999995, 96.04141754999999 325.09869249999997, 96.04141754999999 325.09869249999997, 129.4725474 313.86639979999995, 129.4725474 313.86639979999995, 161.48635324999998 278.194126375, 161.48635324999998 278.194126375, 150.25406055 234.12420824999998, 150.25406055 234.12420824999998, 161.48635324999998 204.36040425, 161.48635324999998 204.36040425, 150.25406055 177.43124825, 150.25406055 177.43124825, 161.48635324999998 147.66744425, 161.48635324999998 147.66744425, 150.25406055 120.73828824999998, 150.25406055 120.73828824999998, 161.48635324999998 90.97448424999999, 161.48635324999998 90.97448424999999, 150.25406055 46.904566124999995, 150.25406055 46.904566124999995, 161.48635324999998 11.2322927, 161.48635324999998 11.2322927, 129.4725474 0, 129.4725474 0, 96.04141754999999 11.2322927, 96.04141754999999 11.2322927, 65.44493569999999 0, 65.44493569999999 0, 32.01380585 11.2322927, 32.01380585 "/> 
 <rect x="123.90955070000003" y="107.02567855" width="42.874051" height="27.637817999999996" rx="0.1771655" ry="0.1771655" style="stroke:#000000;stroke-width:0.90000074;fill:none" /> 
 <rect x="68.6339147" y="122.26191155000001" width="23.385845999999997" height="10.984261" rx="0.1771655" ry="0.1771655" style="stroke:#000000;stroke-width:0.90000074;fill:none" /> 
 <rect x="144.83279625" y="0.708662" width="34.015775999999995" height="41.102396" rx="0.1771655" ry="0.1771655" style="stroke:#000000;stroke-width:0.90000074;fill:none" /> 
</g>
<!-- Right--> 
<g transform="translate(672.6974035, 183.98637175) " > 
<polygon style="stroke:#000000; fill:none; stroke-width:0.90000074" points="11.2322927, 0 46.904566124999995, 0 46.904566124999995, 11.2322927 90.97448424999999, 11.2322927 90.97448424999999, 0 120.73828824999998, 0 120.73828824999998, 11.2322927 147.66744425, 11.2322927 147.66744425, 0 177.43124825, 0 177.43124825, 11.2322927 204.36040425, 11.2322927 204.36040425, 0 234.12420824999998, 0 234.12420824999998, 11.2322927 278.194126375, 11.2322927 278.194126375, 0 313.86639979999995, 0 313.86639979999995, 32.01380585 325.09869249999997, 32.01380585 325.09869249999997, 65.44493569999999 313.86639979999995, 65.44493569999999 313.86639979999995, 96.04141754999999 325.09869249999997, 96.04141754999999 325.09869249999997, 129.4725474 313.86639979999995, 129.4725474 313.86639979999995, 161.48635324999998 278.194126375, 161.48635324999998 278.194126375, 150.25406055 234.12420824999998, 150.25406055 234.12420824999998, 161.48635324999998 204.36040425, 161.48635324999998 204.36040425, 150.25406055 177.43124825, 150.25406055 177.43124825, 161.48635324999998 147.66744425, 161.48635324999998 147.66744425, 150.25406055 120.73828824999998, 150.25406055 120.73828824999998, 161.48635324999998 90.97448424999999, 161.48635324999998 90.97448424999999, 150.25406055 46.904566124999995, 150.25406055 46.904566124999995, 161.48635324999998 11.2322927, 161.48635324999998 11.2322927, 129.4725474 0, 129.4725474 0, 96.04141754999999 11.2322927, 96.04141754999999 11.2322927, 65.44493569999999 0, 65.44493569999999 0, 32.01380585 11.2322927, 32.01380585 "/> 
 <rect x="189.1418878" y="70.42328625" width="34.015775999999995" height="9.921268000000001" rx="0.1771655" ry="0.1771655" style="stroke:#000000;stroke-width:0.90000074;fill:none" /> 
 <circle cx="219.1537235" cy="9.212606000000001" r="1.2401585000000002" style="stroke:#000000;stroke-width:0.90000074;fill:none" /> 
 <circle cx="219.1537235" cy="17.716549999999998" r="1.2401585000000002" style="stroke:#000000;stroke-width:0.90000074;fill:none" /> 
 <rect x="144.83279625" y="0.708662" width="34.015775999999995" height="41.102396" rx="0.1771655" ry="0.1771655" style="stroke:#000000;stroke-width:0.90000074;fill:none" /> 
</g>
<!-- Top--> 
<g transform="translate(22.5000185, 183.98637175) " > 
<polygon style="stroke:#000000; fill:none; stroke-width:0.90000074" points="11.2322927, 11.2322927 45.487242124999995, 11.2322927 45.487242124999995, 0 92.39180824999998, 0 92.39180824999998, 11.2322927 119.32096424999999, 11.2322927 119.32096424999999, 0 149.08476825, 0 149.08476825, 11.2322927 176.01392425, 11.2322927 176.01392425, 0 205.77772825, 0 205.77772825, 11.2322927 232.70688424999997, 11.2322927 232.70688424999997, 0 279.611450375, 0 279.611450375, 11.2322927 313.86639979999995, 11.2322927 313.86639979999995, 45.487242124999995 325.09869249999997, 45.487242124999995 325.09869249999997, 92.39180824999998 313.86639979999995, 92.39180824999998 313.86639979999995, 119.32096424999999 325.09869249999997, 119.32096424999999 325.09869249999997, 149.08476825 313.86639979999995, 149.08476825 313.86639979999995, 176.01392425 325.09869249999997, 176.01392425 325.09869249999997, 205.77772825 313.86639979999995, 205.77772825 313.86639979999995, 232.70688424999997 325.09869249999997, 232.70688424999997 325.09869249999997, 279.611450375 313.86639979999995, 279.611450375 313.86639979999995, 313.86639979999995 279.611450375, 313.86639979999995 279.611450375, 325.09869249999997 232.70688424999997, 325.09869249999997 232.70688424999997, 313.86639979999995 205.77772825, 313.86639979999995 205.77772825, 325.09869249999997 176.01392425, 325.09869249999997 176.01392425, 313.86639979999995 149.08476825, 313.86639979999995 149.08476825, 325.09869249999997 119.32096424999999, 325.09869249999997 119.32096424999999, 313.86639979999995 92.39180824999998, 313.86639979999995 92.39180824999998, 325.09869249999997 45.487242124999995, 325.09869249999997 45.487242124999995, 313.86639979999995 11.2322927, 313.86639979999995 11.2322927, 279.611450375 0, 279.611450375 0, 232.70688424999997 11.2322927, 232.70688424999997 11.2322927, 205.77772825 0, 205.77772825 0, 176.01392425 11.2322927, 176.01392425 11.2322927, 149.08476825 0, 149.08476825 0, 119.32096424999999 11.2322927, 119.32096424999999 11.2322927, 92.39180824999998 0, 92.39180824999998 0, 45.487242124999995 11.2322927, 45.487242124999995 "/> 
 <circle cx="32.4921527" cy="32.4921527" r="9.921268" style="stroke:#000000;stroke-width:0.90000074;fill:none" /> 
 <circle cx="161.84068424999998" cy="161.84068424999998" r="2.834648" style="stroke:#000000;stroke-width:0.90000074;fill:none" /> 
 <rect x="12.649616700000001" y="132.86322172041451" width="5.669296" height="19.842536" rx="0.1771655" ry="0.1771655" style="stroke:#000000;stroke-width:0.90000074;fill:none" /> 
 <rect x="306.0711178" y="94.606377" width="5.669296" height="19.842536" rx="0.1771655" ry="0.1771655" style="stroke:#000000;stroke-width:0.90000074;fill:none" /> 
</g>
<!-- Bottom--> 
<g transform="translate(347.598711, 183.98637175) " > 
<polygon style="stroke:#000000; fill:none; stroke-width:0.90000074" points="11.2322927, 11.2322927 45.487242124999995, 11.2322927 45.487242124999995, 0 92.39180824999998, 0 92.39180824999998, 11.2322927 119.32096424999999, 11.2322927 119.32096424999999, 0 149.08476825, 0 149.08476825, 11.2322927 176.01392425, 11.2322927 176.01392425, 0 205.77772825, 0 205.77772825, 11.2322927 232.70688424999997, 11.2322927 232.70688424999997, 0 279.611450375, 0 279.611450375, 11.2322927 313.86639979999995, 11.2322927 313.86639979999995, 45.487242124999995 325.09869249999997, 45.487242124999995 325.09869249999997, 92.39180824999998 313.86639979999995, 92.39180824999998 313.86639979999995, 119.32096424999999 325.09869249999997, 119.32096424999999 325.09869249999997, 149.08476825 313.86639979999995, 149.08476825 313.86639979999995, 176.01392425 325.09869249999997, 176.01392425 325.09869249999997, 205.77772825 313.86639979999995, 205.77772825 313.86639979999995, 232.70688424999997 325.09869249999997, 232.70688424999997 325.09869249999997, 279.611450375 313.86639979999995, 279.611450375 313.86639979999995, 313.86639979999995 279.611450375, 313.86639979999995 279.611450375, 325.09869249999997 232.70688424999997, 325.09869249999997 232.70688424999997, 313.86639979999995 205.77772825, 313.86639979999995 205.77772825, 325.09869249999997 176.01392425, 325.09869249999997 176.01392425, 313.86639979999995 149.08476825, 313.86639979999995 149.08476825, 325.09869249999997 119.32096424999999, 325.09869249999997 119.32096424999999, 313.86639979999995 92.39180824999998, 313.86639979999995 92.39180824999998, 325.09869249999997 45.487242124999995, 325.09869249999997 45.487242124999995, 313.86639979999995 11.2322927, 313.86639979999995 11.2322927, 279.611450375 0, 279.611450375 0, 232.70688424999997 11.2322927, 232.70688424999997 11.2322927, 205.77772825 0, 205.77772825 0, 176.01392425 11.2322927, 176.01392425 11.2322927, 149.08476825 0, 149.08476825 0, 119.32096424999999 11.2322927, 119.32096424999999 11.2322927, 92.39180824999998 0, 92.39180824999998 0, 45.487242124999995 11.2322927, 45.487242124999995 "/> 
</g></svg>