<?xml version="1.0" encoding="UTF-8" standalone="no"?>
<svg
   xmlns:dc="http://purl.org/dc/elements/1.1/"
   xmlns:cc="http://creativecommons.org/ns#"
   xmlns:rdf="http://www.w3.org/1999/02/22-rdf-syntax-ns#"
   xmlns:svg="http://www.w3.org/2000/svg"
   xmlns="http://www.w3.org/2000/svg"
   xmlns:sodipodi="http://sodipodi.sourceforge.net/DTD/sodipodi-0.dtd"
   xmlns:inkscape="http://www.inkscape.org/namespaces/inkscape"
   version="1.1"
   width="286.74999999999994mm"
   height="119.05mm"
   viewBox=" 0 0 1016.0441424999998 421.8310555"
   id="svg109"
   sodipodi:docname="lid.svg"
   inkscape:version="0.92.2 5c3e80d, 2017-08-06">
  <metadata
     id="metadata115">
    <rdf:RDF>
      <cc:Work
         rdf:about="">
        <dc:format>image/svg+xml</dc:format>
        <dc:type
           rdf:resource="http://purl.org/dc/dcmitype/StillImage" />
      </cc:Work>
    </rdf:RDF>
  </metadata>
  <defs
     id="defs113" />
  <sodipodi:namedview
     pagecolor="#ffffff"
     bordercolor="#666666"
     borderopacity="1"
     objecttolerance="10"
     gridtolerance="10"
     guidetolerance="10"
     inkscape:pageopacity="0"
     inkscape:pageshadow="2"
     inkscape:window-width="2560"
     inkscape:window-height="1395"
     id="namedview111"
     showgrid="false"
     inkscape:zoom="1.5528196"
     inkscape:cx="629.75748"
     inkscape:cy="199.31246"
     inkscape:window-x="0"
     inkscape:window-y="1"
     inkscape:window-maximized="1"
     inkscape:current-layer="svg109" />
  <!-- Front-->
  <path
     inkscape:connector-curvature="0"
     id="path220"
     d="M 292.80187,388.16312 V 86.946342 h -10.62993 v -11.23229 h -10.62993 v 11.23229 h -10.62993 v -11.23229 h -10.62993 v 11.23229 h -10.62993 v 44.309108 h 11.23229 v 42.51967 h -11.23229 v 42.51972 h 11.23229 v 42.51973 h -11.23229 v 42.51972 h 11.23229 v 42.51973 h -11.23229 v 44.3091 h 10.62993 v 11.2323 h 10.62993 v -11.2323 h 10.62993 v 11.2323 h 10.62993 v -11.2323 h 10.62993"
     style="fill:none;stroke:#000000;stroke-width:0.93750077px;stroke-linecap:butt;stroke-linejoin:miter;stroke-opacity:1" />
  <!-- Back-->
  <g
     transform="translate(346.18139,22.500018)"
     id="g91">
    <g
       id="g57">
      <circle
         id="circle83"
         style="fill:none;stroke:#000000;stroke-width:0.90000075"
         r="2.8125024"
         cy="33.48428"
         cx="70.866203" />
      <circle
         id="circle85"
         style="fill:none;stroke:#000000;stroke-width:0.90000075"
         r="2.8125024"
         cy="33.48428"
         cx="110.9056" />
      <circle
         id="circle87"
         style="fill:none;stroke:#000000;stroke-width:0.90000075"
         r="2.8125024"
         cy="33.48428"
         cx="212.77577" />
      <circle
         id="circle89"
         style="fill:none;stroke:#000000;stroke-width:0.90000075"
         r="2.8125024"
         cy="33.48428"
         cx="252.81517" />
      <path
         inkscape:connector-curvature="0"
         id="path183"
         d="M 1.2485941e-8,53.149649 H 323.68136 V 42.519719 H 312.44907 V 31.88979 h 11.23229 V 21.25986 H 312.44907 V 10.629929 h 11.23229 V -7.6e-7 H 282.31322 V 11.232292 H 239.7935 V -7.6e-7 H 183.10054 V 11.232292 H 140.58082 V -7.6e-7 H 83.887859 V 11.232292 H 41.36814 V -7.6e-7 H 1.2485998e-8 V 10.629929 H 11.23229 V 21.25986 H 1.2485998e-8 V 31.88979 H 11.23229 V 42.519719 H 1.2485998e-8 Z"
         style="fill:none;stroke:#000000;stroke-width:0.93750077px;stroke-linecap:butt;stroke-linejoin:miter;stroke-opacity:1" />
    </g>
    <g
       id="g50">
      <circle
         cx="142.79539"
         cy="57.383907"
         r="3.2775617"
         style="fill:none;stroke:#000000;stroke-width:0.90000075"
         id="circle75"
         transform="translate(-346.18139,-22.500018)" />
      <circle
         cx="225.86829"
         cy="57.383907"
         r="3.2775617"
         style="fill:none;stroke:#000000;stroke-width:0.90000075"
         id="circle77"
         transform="translate(-346.18139,-22.500018)" />
      <path
         inkscape:connector-curvature="0"
         id="path183-7"
         d="M -323.68137,53.149649 H 1.2485948e-8 V 42.519719 H -11.23229 V 31.889789 H 1.2485948e-8 V 21.259859 H -11.23229 V 10.629929 H 1.2485948e-8 V -1e-6 H -41.368139 V 11.232292 H -83.887856 V -1e-6 h -56.692974 v 11.232293 h -42.51972 V -1e-6 h -56.69296 v 11.232293 h -42.51972 V -1e-6 h -41.36814 v 10.62993 h 11.23229 v 10.62993 h -11.23229 v 10.62993 h 11.23229 v 10.62993 h -11.23229 z"
         style="fill:none;stroke:#000000;stroke-width:0.93750077px;stroke-linecap:butt;stroke-linejoin:miter;stroke-opacity:1" />
    </g>
  </g>
  <!-- Left-->
  <g
     transform="translate(669.8627554999999, 22.5000185) "
     id="g95" />
  <!-- Right-->
  <g
     transform="translate(669.8627554999999, 75.6496685) "
     id="g99">
    <path
       style="fill:none;stroke:#000000;stroke-width:0.93750077px;stroke-linecap:butt;stroke-linejoin:miter;stroke-opacity:1"
       d="m -282.31323,312.44908 v 11.23229 h 42.51972 v -11.23229 h 56.69296 v 11.23229 h 42.51972 v -11.23229 h 56.692964 v 11.23229 h 42.519719 v -11.23229 h 30.135849 v -44.3091 H -7.5900357e-6 V 225.62026 H -11.232298 V 183.10054 H -7.5900357e-6 V 140.58082 H -11.232298 V 98.061103 H -7.5900357e-6 V 55.541384 H -11.232298 V 11.232292 H -41.368147 V -7.9838536e-7 H -83.887866 V 11.232292 H -140.58083 V -7.9838536e-7 h -42.51972 V 11.232292 h -56.69296 V -7.9838536e-7 h -42.51972 V 11.232292 h -30.13585 v 9.451783 34.857309 h -11.23229 v 42.519719 h 11.23229 v 42.519717 h -11.23229 v 42.51972 h 11.23229 v 42.51972 h -11.23229 v 42.51972 h 11.23229 v 44.3091 z"
       id="path237"
       inkscape:connector-curvature="0" />
  </g>
  <!-- Top-->
  <!-- Bottom-->
  <g
     transform="translate(346.181387, 75.6496685) "
     id="g107" />
  <path
     style="fill:none;stroke:#000000;stroke-width:0.93750077px;stroke-linecap:butt;stroke-linejoin:miter;stroke-opacity:1"
     d="M 345.95152,388.16311 V 86.946342 h -10.62993 v -11.23229 h -10.62993 v 11.23229 H 314.06173 V 75.714052 H 303.4318 v 11.23229 h -10.62993 v 44.309098 h 11.23229 v 42.51968 h -11.23229 v 42.51972 h 11.23229 v 42.51973 h -11.23229 v 42.51972 h 11.23229 v 42.51972 h -11.23229 v 44.3091 h 10.62993 v 11.2323 h 10.62993 v -11.2323 h 10.62993 v 11.2323 h 10.62993 v -11.2323 h 10.62993"
     id="path220-9"
     inkscape:connector-curvature="0" />
</svg>
