<svg xmlns="http://www.w3.org/2000/svg" version="1.1" width="286.74999999999994mm" height="119.05mm" viewBox = " 0 0 1016.0441424999998 421.8310555" >
<!-- Front--> 
<g transform="translate(22.5000185, 22.5000185) " > 
<polygon style="stroke:#000000; fill:none; stroke-width:0.90000074" points="0, 0 22.101396124999994, 0 22.101396124999994, 11.2322927 41.368144249999986, 11.2322927 41.368144249999986, 0 56.95870824999999, 0 56.95870824999999, 11.2322927 69.71462424999999, 11.2322927 69.71462424999999, 0 85.30518824999997, 0 85.30518824999997, 11.2322927 98.06110424999999, 11.2322927 98.06110424999999, 0 113.65166824999997, 0 113.65166824999997, 11.2322927 126.40758424999999, 11.2322927 126.40758424999999, 0 141.99814824999999, 0 141.99814824999999, 11.2322927 154.75406425, 11.2322927 154.75406425, 0 170.34462824999997, 0 170.34462824999997, 11.2322927 183.10054424999998, 11.2322927 183.10054424999998, 0 198.69110825, 0 198.69110825, 11.2322927 211.44702424999997, 11.2322927 211.44702424999997, 0 227.03758825, 0 227.03758825, 11.2322927 239.79350425, 11.2322927 239.79350425, 0 255.38406824999998, 0 255.38406824999998, 11.2322927 268.13998425, 11.2322927 268.13998425, 0 283.73054824999997, 0 283.73054824999997, 11.2322927 302.99729637499996, 11.2322927 302.99729637499996, 0 325.09869249999997, 0 325.09869249999997, 12.047254 313.86639979999995, 12.047254 313.86639979999995, 21.25986 325.09869249999997, 21.25986 325.09869249999997, 33.307114 313.86639979999995, 33.307114 313.86639979999995, 42.51972 325.09869249999997, 42.51972 325.09869249999997, 54.566974 302.99729637499996, 54.566974 302.99729637499996, 43.3346813 283.73054824999997, 43.3346813 283.73054824999997, 54.566974 268.13998425, 54.566974 268.13998425, 43.3346813 255.38406824999998, 43.3346813 255.38406824999998, 54.566974 239.79350425, 54.566974 239.79350425, 43.3346813 227.03758825, 43.3346813 227.03758825, 54.566974 211.44702424999997, 54.566974 211.44702424999997, 43.3346813 198.69110825, 43.3346813 198.69110825, 54.566974 183.10054424999998, 54.566974 183.10054424999998, 43.3346813 170.34462824999997, 43.3346813 170.34462824999997, 54.566974 154.75406425, 54.566974 154.75406425, 43.3346813 141.99814824999999, 43.3346813 141.99814824999999, 54.566974 126.40758424999999, 54.566974 126.40758424999999, 43.3346813 113.65166824999997, 43.3346813 113.65166824999997, 54.566974 98.06110424999999, 54.566974 98.06110424999999, 43.3346813 85.30518824999997, 43.3346813 85.30518824999997, 54.566974 69.71462424999999, 54.566974 69.71462424999999, 43.3346813 56.95870824999999, 43.3346813 56.95870824999999, 54.566974 41.368144249999986, 54.566974 41.368144249999986, 43.3346813 22.101396124999994, 43.3346813 22.101396124999994, 54.566974 0, 54.566974 0, 42.51972 11.2322927, 42.51972 11.2322927, 33.307114 0, 33.307114 0, 21.25986 11.2322927, 21.25986 11.2322927, 12.047254 0, 12.047254 "/> 
 <circle cx="120.29537450000001" cy="34.883886950000004" r="2.5688997500000004" style="stroke:#000000;stroke-width:0.90000074;fill:none" /> 
 <circle cx="203.36827745000002" cy="34.883886950000004" r="2.5688997500000004" style="stroke:#000000;stroke-width:0.90000074;fill:none" /> 
</g>
<!-- Back--> 
<g transform="translate(347.598711, 22.5000185) " > 
<polygon style="stroke:#000000; fill:none; stroke-width:0.90000074" points="0, 0 22.101396124999994, 0 22.101396124999994, 11.2322927 41.368144249999986, 11.2322927 41.368144249999986, 0 56.95870824999999, 0 56.95870824999999, 11.2322927 69.71462424999999, 11.2322927 69.71462424999999, 0 85.30518824999997, 0 85.30518824999997, 11.2322927 98.06110424999999, 11.2322927 98.06110424999999, 0 113.65166824999997, 0 113.65166824999997, 11.2322927 126.40758424999999, 11.2322927 126.40758424999999, 0 141.99814824999999, 0 141.99814824999999, 11.2322927 154.75406425, 11.2322927 154.75406425, 0 170.34462824999997, 0 170.34462824999997, 11.2322927 183.10054424999998, 11.2322927 183.10054424999998, 0 198.69110825, 0 198.69110825, 11.2322927 211.44702424999997, 11.2322927 211.44702424999997, 0 227.03758825, 0 227.03758825, 11.2322927 239.79350425, 11.2322927 239.79350425, 0 255.38406824999998, 0 255.38406824999998, 11.2322927 268.13998425, 11.2322927 268.13998425, 0 283.73054824999997, 0 283.73054824999997, 11.2322927 302.99729637499996, 11.2322927 302.99729637499996, 0 325.09869249999997, 0 325.09869249999997, 12.047254 313.86639979999995, 12.047254 313.86639979999995, 21.25986 325.09869249999997, 21.25986 325.09869249999997, 33.307114 313.86639979999995, 33.307114 313.86639979999995, 42.51972 325.09869249999997, 42.51972 325.09869249999997, 54.566974 302.99729637499996, 54.566974 302.99729637499996, 43.3346813 283.73054824999997, 43.3346813 283.73054824999997, 54.566974 268.13998425, 54.566974 268.13998425, 43.3346813 255.38406824999998, 43.3346813 255.38406824999998, 54.566974 239.79350425, 54.566974 239.79350425, 43.3346813 227.03758825, 43.3346813 227.03758825, 54.566974 211.44702424999997, 54.566974 211.44702424999997, 43.3346813 198.69110825, 43.3346813 198.69110825, 54.566974 183.10054424999998, 54.566974 183.10054424999998, 43.3346813 170.34462824999997, 43.3346813 170.34462824999997, 54.566974 154.75406425, 54.566974 154.75406425, 43.3346813 141.99814824999999, 43.3346813 141.99814824999999, 54.566974 126.40758424999999, 54.566974 126.40758424999999, 43.3346813 113.65166824999997, 43.3346813 113.65166824999997, 54.566974 98.06110424999999, 54.566974 98.06110424999999, 43.3346813 85.30518824999997, 43.3346813 85.30518824999997, 54.566974 69.71462424999999, 54.566974 69.71462424999999, 43.3346813 56.95870824999999, 43.3346813 56.95870824999999, 54.566974 41.368144249999986, 54.566974 41.368144249999986, 43.3346813 22.101396124999994, 43.3346813 22.101396124999994, 54.566974 0, 54.566974 0, 42.51972 11.2322927, 42.51972 11.2322927, 33.307114 0, 33.307114 0, 21.25986 11.2322927, 21.25986 11.2322927, 12.047254 0, 12.047254 "/> 
 <circle cx="70.86619999999999" cy="33.4842795" r="2.1038403125" style="stroke:#000000;stroke-width:0.90000074;fill:none" /> 
 <circle cx="110.905603" cy="33.4842795" r="2.1038403125" style="stroke:#000000;stroke-width:0.90000074;fill:none" /> 
 <circle cx="212.77576549999998" cy="33.4842795" r="2.1038403125" style="stroke:#000000;stroke-width:0.90000074;fill:none" /> 
 <circle cx="252.81516849999997" cy="33.4842795" r="2.1038403125" style="stroke:#000000;stroke-width:0.90000074;fill:none" /> 
</g>
<!-- Left--> 
<g transform="translate(672.6974035, 22.5000185) " > 
<polygon style="stroke:#000000; fill:none; stroke-width:0.90000074" points="11.2322927, 0 22.101396124999994, 0 22.101396124999994, 11.2322927 41.368144249999986, 11.2322927 41.368144249999986, 0 56.95870824999999, 0 56.95870824999999, 11.2322927 69.71462424999999, 11.2322927 69.71462424999999, 0 85.30518824999997, 0 85.30518824999997, 11.2322927 98.06110424999999, 11.2322927 98.06110424999999, 0 113.65166824999997, 0 113.65166824999997, 11.2322927 126.40758424999999, 11.2322927 126.40758424999999, 0 141.99814824999999, 0 141.99814824999999, 11.2322927 154.75406425, 11.2322927 154.75406425, 0 170.34462824999997, 0 170.34462824999997, 11.2322927 183.10054424999998, 11.2322927 183.10054424999998, 0 198.69110825, 0 198.69110825, 11.2322927 211.44702424999997, 11.2322927 211.44702424999997, 0 227.03758825, 0 227.03758825, 11.2322927 239.79350425, 11.2322927 239.79350425, 0 255.38406824999998, 0 255.38406824999998, 11.2322927 268.13998425, 11.2322927 268.13998425, 0 283.73054824999997, 0 283.73054824999997, 11.2322927 302.99729637499996, 11.2322927 302.99729637499996, 0 313.86639979999995, 0 313.86639979999995, 10.62993 325.09869249999997, 10.62993 325.09869249999997, 22.677184 313.86639979999995, 22.677184 313.86639979999995, 31.889789999999998 325.09869249999997, 31.889789999999998 325.09869249999997, 43.937044 313.86639979999995, 43.937044 313.86639979999995, 54.566974 302.99729637499996, 54.566974 302.99729637499996, 43.3346813 283.73054824999997, 43.3346813 283.73054824999997, 54.566974 268.13998425, 54.566974 268.13998425, 43.3346813 255.38406824999998, 43.3346813 255.38406824999998, 54.566974 239.79350425, 54.566974 239.79350425, 43.3346813 227.03758825, 43.3346813 227.03758825, 54.566974 211.44702424999997, 54.566974 211.44702424999997, 43.3346813 198.69110825, 43.3346813 198.69110825, 54.566974 183.10054424999998, 54.566974 183.10054424999998, 43.3346813 170.34462824999997, 43.3346813 170.34462824999997, 54.566974 154.75406425, 54.566974 154.75406425, 43.3346813 141.99814824999999, 43.3346813 141.99814824999999, 54.566974 126.40758424999999, 54.566974 126.40758424999999, 43.3346813 113.65166824999997, 43.3346813 113.65166824999997, 54.566974 98.06110424999999, 54.566974 98.06110424999999, 43.3346813 85.30518824999997, 43.3346813 85.30518824999997, 54.566974 69.71462424999999, 54.566974 69.71462424999999, 43.3346813 56.95870824999999, 43.3346813 56.95870824999999, 54.566974 41.368144249999986, 54.566974 41.368144249999986, 43.3346813 22.101396124999994, 43.3346813 22.101396124999994, 54.566974 11.2322927, 54.566974 11.2322927, 43.937044 0, 43.937044 0, 31.889789999999998 11.2322927, 31.889789999999998 11.2322927, 22.677184 0, 22.677184 0, 10.62993 11.2322927, 10.62993 "/> 
</g>
<!-- Right--> 
<g transform="translate(672.6974035, 77.0669925) " > 
<polygon style="stroke:#000000; fill:none; stroke-width:0.90000074" points="11.2322927, 0 22.101396124999994, 0 22.101396124999994, 11.2322927 41.368144249999986, 11.2322927 41.368144249999986, 0 56.95870824999999, 0 56.95870824999999, 11.2322927 69.71462424999999, 11.2322927 69.71462424999999, 0 85.30518824999997, 0 85.30518824999997, 11.2322927 98.06110424999999, 11.2322927 98.06110424999999, 0 113.65166824999997, 0 113.65166824999997, 11.2322927 126.40758424999999, 11.2322927 126.40758424999999, 0 141.99814824999999, 0 141.99814824999999, 11.2322927 154.75406425, 11.2322927 154.75406425, 0 170.34462824999997, 0 170.34462824999997, 11.2322927 183.10054424999998, 11.2322927 183.10054424999998, 0 198.69110825, 0 198.69110825, 11.2322927 211.44702424999997, 11.2322927 211.44702424999997, 0 227.03758825, 0 227.03758825, 11.2322927 239.79350425, 11.2322927 239.79350425, 0 255.38406824999998, 0 255.38406824999998, 11.2322927 268.13998425, 11.2322927 268.13998425, 0 283.73054824999997, 0 283.73054824999997, 11.2322927 302.99729637499996, 11.2322927 302.99729637499996, 0 313.86639979999995, 0 313.86639979999995, 10.62993 325.09869249999997, 10.62993 325.09869249999997, 22.677184 313.86639979999995, 22.677184 313.86639979999995, 31.889789999999998 325.09869249999997, 31.889789999999998 325.09869249999997, 43.937044 313.86639979999995, 43.937044 313.86639979999995, 54.566974 302.99729637499996, 54.566974 302.99729637499996, 43.3346813 283.73054824999997, 43.3346813 283.73054824999997, 54.566974 268.13998425, 54.566974 268.13998425, 43.3346813 255.38406824999998, 43.3346813 255.38406824999998, 54.566974 239.79350425, 54.566974 239.79350425, 43.3346813 227.03758825, 43.3346813 227.03758825, 54.566974 211.44702424999997, 54.566974 211.44702424999997, 43.3346813 198.69110825, 43.3346813 198.69110825, 54.566974 183.10054424999998, 54.566974 183.10054424999998, 43.3346813 170.34462824999997, 43.3346813 170.34462824999997, 54.566974 154.75406425, 54.566974 154.75406425, 43.3346813 141.99814824999999, 43.3346813 141.99814824999999, 54.566974 126.40758424999999, 54.566974 126.40758424999999, 43.3346813 113.65166824999997, 43.3346813 113.65166824999997, 54.566974 98.06110424999999, 54.566974 98.06110424999999, 43.3346813 85.30518824999997, 43.3346813 85.30518824999997, 54.566974 69.71462424999999, 54.566974 69.71462424999999, 43.3346813 56.95870824999999, 43.3346813 56.95870824999999, 54.566974 41.368144249999986, 54.566974 41.368144249999986, 43.3346813 22.101396124999994, 43.3346813 22.101396124999994, 54.566974 11.2322927, 54.566974 11.2322927, 43.937044 0, 43.937044 0, 31.889789999999998 11.2322927, 31.889789999999998 11.2322927, 22.677184 0, 22.677184 0, 10.62993 11.2322927, 10.62993 "/> 
</g>
<!-- Top--> 
<g transform="translate(22.5000185, 77.0669925) " > 
<polygon style="stroke:#000000; fill:none; stroke-width:0.90000074" points="11.2322927, 11.2322927 20.684072124999993, 11.2322927 20.684072124999993, 0 42.78546824999999, 0 42.78546824999999, 11.2322927 55.541384249999986, 11.2322927 55.541384249999986, 0 71.13194824999998, 0 71.13194824999998, 11.2322927 83.88786424999998, 11.2322927 83.88786424999998, 0 99.47842824999998, 0 99.47842824999998, 11.2322927 112.23434424999998, 11.2322927 112.23434424999998, 0 127.82490824999998, 0 127.82490824999998, 11.2322927 140.58082424999998, 11.2322927 140.58082424999998, 0 156.17138825, 0 156.17138825, 11.2322927 168.92730424999996, 11.2322927 168.92730424999996, 0 184.51786825, 0 184.51786825, 11.2322927 197.27378425, 11.2322927 197.27378425, 0 212.86434824999998, 0 212.86434824999998, 11.2322927 225.62026425, 11.2322927 225.62026425, 0 241.21082825000002, 0 241.21082825000002, 11.2322927 253.96674424999998, 11.2322927 253.96674424999998, 0 269.55730825, 0 269.55730825, 11.2322927 282.31322424999996, 11.2322927 282.31322424999996, 0 304.41462037499997, 0 304.41462037499997, 11.2322927 313.86639979999995, 11.2322927 313.86639979999995, 20.684072124999993 325.09869249999997, 20.684072124999993 325.09869249999997, 42.78546824999999 313.86639979999995, 42.78546824999999 313.86639979999995, 55.541384249999986 325.09869249999997, 55.541384249999986 325.09869249999997, 71.13194824999998 313.86639979999995, 71.13194824999998 313.86639979999995, 83.88786424999998 325.09869249999997, 83.88786424999998 325.09869249999997, 99.47842824999998 313.86639979999995, 99.47842824999998 313.86639979999995, 112.23434424999998 325.09869249999997, 112.23434424999998 325.09869249999997, 127.82490824999998 313.86639979999995, 127.82490824999998 313.86639979999995, 140.58082424999998 325.09869249999997, 140.58082424999998 325.09869249999997, 156.17138825 313.86639979999995, 156.17138825 313.86639979999995, 168.92730424999996 325.09869249999997, 168.92730424999996 325.09869249999997, 184.51786825 313.86639979999995, 184.51786825 313.86639979999995, 197.27378425 325.09869249999997, 197.27378425 325.09869249999997, 212.86434824999998 313.86639979999995, 212.86434824999998 313.86639979999995, 225.62026425 325.09869249999997, 225.62026425 325.09869249999997, 241.21082825000002 313.86639979999995, 241.21082825000002 313.86639979999995, 253.96674424999998 325.09869249999997, 253.96674424999998 325.09869249999997, 269.55730825 313.86639979999995, 269.55730825 313.86639979999995, 282.31322424999996 325.09869249999997, 282.31322424999996 325.09869249999997, 304.41462037499997 313.86639979999995, 304.41462037499997 313.86639979999995, 313.86639979999995 304.41462037499997, 313.86639979999995 304.41462037499997, 325.09869249999997 282.31322424999996, 325.09869249999997 282.31322424999996, 313.86639979999995 269.55730825, 313.86639979999995 269.55730825, 325.09869249999997 253.96674424999998, 325.09869249999997 253.96674424999998, 313.86639979999995 241.21082825000002, 313.86639979999995 241.21082825000002, 325.09869249999997 225.62026425, 325.09869249999997 225.62026425, 313.86639979999995 212.86434824999998, 313.86639979999995 212.86434824999998, 325.09869249999997 197.27378425, 325.09869249999997 197.27378425, 313.86639979999995 184.51786825, 313.86639979999995 184.51786825, 325.09869249999997 168.92730424999996, 325.09869249999997 168.92730424999996, 313.86639979999995 156.17138825, 313.86639979999995 156.17138825, 325.09869249999997 140.58082424999998, 325.09869249999997 140.58082424999998, 313.86639979999995 127.82490824999998, 313.86639979999995 127.82490824999998, 325.09869249999997 112.23434424999998, 325.09869249999997 112.23434424999998, 313.86639979999995 99.47842824999998, 313.86639979999995 99.47842824999998, 325.09869249999997 83.88786424999998, 325.09869249999997 83.88786424999998, 313.86639979999995 71.13194824999998, 313.86639979999995 71.13194824999998, 325.09869249999997 55.541384249999986, 325.09869249999997 55.541384249999986, 313.86639979999995 42.78546824999999, 313.86639979999995 42.78546824999999, 325.09869249999997 20.684072124999993, 325.09869249999997 20.684072124999993, 313.86639979999995 11.2322927, 313.86639979999995 11.2322927, 304.41462037499997 0, 304.41462037499997 0, 282.31322424999996 11.2322927, 282.31322424999996 11.2322927, 269.55730825 0, 269.55730825 0, 253.96674424999998 11.2322927, 253.96674424999998 11.2322927, 241.21082825000002 0, 241.21082825000002 0, 225.62026425 11.2322927, 225.62026425 11.2322927, 212.86434824999998 0, 212.86434824999998 0, 197.27378425 11.2322927, 197.27378425 11.2322927, 184.51786825 0, 184.51786825 0, 168.92730424999996 11.2322927, 168.92730424999996 11.2322927, 156.17138825 0, 156.17138825 0, 140.58082424999998 11.2322927, 140.58082424999998 11.2322927, 127.82490824999998 0, 127.82490824999998 0, 112.23434424999998 11.2322927, 112.23434424999998 11.2322927, 99.47842824999998 0, 99.47842824999998 0, 83.88786424999998 11.2322927, 83.88786424999998 11.2322927, 71.13194824999998 0, 71.13194824999998 0, 55.541384249999986 11.2322927, 55.541384249999986 11.2322927, 42.78546824999999 0, 42.78546824999999 0, 20.684072124999993 11.2322927, 20.684072124999993 "/> 
</g>
<!-- Bottom--> 
<g transform="translate(347.598711, 77.0669925) " > 
<polygon style="stroke:#000000; fill:none; stroke-width:0.90000074" points="11.2322927, 11.2322927 20.684072124999993, 11.2322927 20.684072124999993, 0 42.78546824999999, 0 42.78546824999999, 11.2322927 55.541384249999986, 11.2322927 55.541384249999986, 0 71.13194824999998, 0 71.13194824999998, 11.2322927 83.88786424999998, 11.2322927 83.88786424999998, 0 99.47842824999998, 0 99.47842824999998, 11.2322927 112.23434424999998, 11.2322927 112.23434424999998, 0 127.82490824999998, 0 127.82490824999998, 11.2322927 140.58082424999998, 11.2322927 140.58082424999998, 0 156.17138825, 0 156.17138825, 11.2322927 168.92730424999996, 11.2322927 168.92730424999996, 0 184.51786825, 0 184.51786825, 11.2322927 197.27378425, 11.2322927 197.27378425, 0 212.86434824999998, 0 212.86434824999998, 11.2322927 225.62026425, 11.2322927 225.62026425, 0 241.21082825000002, 0 241.21082825000002, 11.2322927 253.96674424999998, 11.2322927 253.96674424999998, 0 269.55730825, 0 269.55730825, 11.2322927 282.31322424999996, 11.2322927 282.31322424999996, 0 304.41462037499997, 0 304.41462037499997, 11.2322927 313.86639979999995, 11.2322927 313.86639979999995, 20.684072124999993 325.09869249999997, 20.684072124999993 325.09869249999997, 42.78546824999999 313.86639979999995, 42.78546824999999 313.86639979999995, 55.541384249999986 325.09869249999997, 55.541384249999986 325.09869249999997, 71.13194824999998 313.86639979999995, 71.13194824999998 313.86639979999995, 83.88786424999998 325.09869249999997, 83.88786424999998 325.09869249999997, 99.47842824999998 313.86639979999995, 99.47842824999998 313.86639979999995, 112.23434424999998 325.09869249999997, 112.23434424999998 325.09869249999997, 127.82490824999998 313.86639979999995, 127.82490824999998 313.86639979999995, 140.58082424999998 325.09869249999997, 140.58082424999998 325.09869249999997, 156.17138825 313.86639979999995, 156.17138825 313.86639979999995, 168.92730424999996 325.09869249999997, 168.92730424999996 325.09869249999997, 184.51786825 313.86639979999995, 184.51786825 313.86639979999995, 197.27378425 325.09869249999997, 197.27378425 325.09869249999997, 212.86434824999998 313.86639979999995, 212.86434824999998 313.86639979999995, 225.62026425 325.09869249999997, 225.62026425 325.09869249999997, 241.21082825000002 313.86639979999995, 241.21082825000002 313.86639979999995, 253.96674424999998 325.09869249999997, 253.96674424999998 325.09869249999997, 269.55730825 313.86639979999995, 269.55730825 313.86639979999995, 282.31322424999996 325.09869249999997, 282.31322424999996 325.09869249999997, 304.41462037499997 313.86639979999995, 304.41462037499997 313.86639979999995, 313.86639979999995 304.41462037499997, 313.86639979999995 304.41462037499997, 325.09869249999997 282.31322424999996, 325.09869249999997 282.31322424999996, 313.86639979999995 269.55730825, 313.86639979999995 269.55730825, 325.09869249999997 253.96674424999998, 325.09869249999997 253.96674424999998, 313.86639979999995 241.21082825000002, 313.86639979999995 241.21082825000002, 325.09869249999997 225.62026425, 325.09869249999997 225.62026425, 313.86639979999995 212.86434824999998, 313.86639979999995 212.86434824999998, 325.09869249999997 197.27378425, 325.09869249999997 197.27378425, 313.86639979999995 184.51786825, 313.86639979999995 184.51786825, 325.09869249999997 168.92730424999996, 325.09869249999997 168.92730424999996, 313.86639979999995 156.17138825, 313.86639979999995 156.17138825, 325.09869249999997 140.58082424999998, 325.09869249999997 140.58082424999998, 313.86639979999995 127.82490824999998, 313.86639979999995 127.82490824999998, 325.09869249999997 112.23434424999998, 325.09869249999997 112.23434424999998, 313.86639979999995 99.47842824999998, 313.86639979999995 99.47842824999998, 325.09869249999997 83.88786424999998, 325.09869249999997 83.88786424999998, 313.86639979999995 71.13194824999998, 313.86639979999995 71.13194824999998, 325.09869249999997 55.541384249999986, 325.09869249999997 55.541384249999986, 313.86639979999995 42.78546824999999, 313.86639979999995 42.78546824999999, 325.09869249999997 20.684072124999993, 325.09869249999997 20.684072124999993, 313.86639979999995 11.2322927, 313.86639979999995 11.2322927, 304.41462037499997 0, 304.41462037499997 0, 282.31322424999996 11.2322927, 282.31322424999996 11.2322927, 269.55730825 0, 269.55730825 0, 253.96674424999998 11.2322927, 253.96674424999998 11.2322927, 241.21082825000002 0, 241.21082825000002 0, 225.62026425 11.2322927, 225.62026425 11.2322927, 212.86434824999998 0, 212.86434824999998 0, 197.27378425 11.2322927, 197.27378425 11.2322927, 184.51786825 0, 184.51786825 0, 168.92730424999996 11.2322927, 168.92730424999996 11.2322927, 156.17138825 0, 156.17138825 0, 140.58082424999998 11.2322927, 140.58082424999998 11.2322927, 127.82490824999998 0, 127.82490824999998 0, 112.23434424999998 11.2322927, 112.23434424999998 11.2322927, 99.47842824999998 0, 99.47842824999998 0, 83.88786424999998 11.2322927, 83.88786424999998 11.2322927, 71.13194824999998 0, 71.13194824999998 0, 55.541384249999986 11.2322927, 55.541384249999986 11.2322927, 42.78546824999999 0, 42.78546824999999 0, 20.684072124999993 11.2322927, 20.684072124999993 "/> 
</g></svg>