<?xml version="1.0" encoding="UTF-8" standalone="no"?>
<svg
   xmlns:dc="http://purl.org/dc/elements/1.1/"
   xmlns:cc="http://creativecommons.org/ns#"
   xmlns:rdf="http://www.w3.org/1999/02/22-rdf-syntax-ns#"
   xmlns:svg="http://www.w3.org/2000/svg"
   xmlns="http://www.w3.org/2000/svg"
   xmlns:sodipodi="http://sodipodi.sourceforge.net/DTD/sodipodi-0.dtd"
   xmlns:inkscape="http://www.inkscape.org/namespaces/inkscape"
   version="1.1"
   width="286.74999999999994mm"
   height="119.05mm"
   viewBox=" 0 0 1016.0441424999998 421.8310555"
   id="svg109"
   sodipodi:docname="lid.svg"
   inkscape:version="0.92.2 5c3e80d, 2017-08-06">
  <metadata
     id="metadata115">
    <rdf:RDF>
      <cc:Work
         rdf:about="">
        <dc:format>image/svg+xml</dc:format>
        <dc:type
           rdf:resource="http://purl.org/dc/dcmitype/StillImage" />
      </cc:Work>
    </rdf:RDF>
  </metadata>
  <defs
     id="defs113" />
  <sodipodi:namedview
     pagecolor="#ffffff"
     bordercolor="#666666"
     borderopacity="1"
     objecttolerance="10"
     gridtolerance="10"
     guidetolerance="10"
     inkscape:pageopacity="0"
     inkscape:pageshadow="2"
     inkscape:window-width="2560"
     inkscape:window-height="1395"
     id="namedview111"
     showgrid="false"
     inkscape:zoom="2.1960186"
     inkscape:cx="309.00857"
     inkscape:cy="255.09841"
     inkscape:window-x="0"
     inkscape:window-y="1"
     inkscape:window-maximized="1"
     inkscape:current-layer="g79" />
  <!-- Front-->
  <g
     transform="translate(22.5000185, 22.5000185) "
     id="g79">
    <circle
       cx="120.29537450000001"
       cy="34.883886950000004"
       r="3.2775617500000003"
       style="stroke:#000000;stroke-width:0.90000074;fill:none"
       id="circle75" />
    <circle
       cx="203.36827745000002"
       cy="34.883886950000004"
       r="3.2775617500000003"
       style="stroke:#000000;stroke-width:0.90000074;fill:none"
       id="circle77" />
    <path
       style="fill:none;stroke:#000000;stroke-width:0.93750077px;stroke-linecap:butt;stroke-linejoin:miter;stroke-opacity:1"
       d="M 22.464597,193.73047 H 323.68137 v -10.62993 h 11.23229 v -10.62993 h -11.23229 v -10.62993 h 11.23229 v -10.62993 h -11.23229 v -10.62993 h -44.30911 v 11.23229 h -42.51967 v -11.23229 h -42.51972 v 11.23229 h -42.51973 v -11.23229 h -42.51972 v 11.23229 H 66.773697 v -11.23229 h -44.3091 v 10.62993 h -11.2323 v 10.62993 h 11.2323 v 10.62993 h -11.2323 v 10.62993 h 11.2323 v 10.62993"
       id="path220"
       inkscape:connector-curvature="0" />
  </g>
  <!-- Back-->
  <g
     transform="translate(346.181387, 22.5000185) "
     id="g91">
    <circle
       cx="70.86619999999999"
       cy="33.4842795"
       r="2.8125023125"
       style="stroke:#000000;stroke-width:0.90000074;fill:none"
       id="circle83" />
    <circle
       cx="110.905603"
       cy="33.4842795"
       r="2.8125023125"
       style="stroke:#000000;stroke-width:0.90000074;fill:none"
       id="circle85" />
    <circle
       cx="212.77576549999998"
       cy="33.4842795"
       r="2.8125023125"
       style="stroke:#000000;stroke-width:0.90000074;fill:none"
       id="circle87" />
    <circle
       cx="252.81516849999997"
       cy="33.4842795"
       r="2.8125023125"
       style="stroke:#000000;stroke-width:0.90000074;fill:none"
       id="circle89" />
    <path
       style="fill:none;stroke:#000000;stroke-width:0.93750077px;stroke-linecap:butt;stroke-linejoin:miter;stroke-opacity:1"
       d="M 1.2485941e-8,53.149649 H 323.68136 V 42.519719 H 312.44907 V 31.88979 h 11.23229 V 21.25986 H 312.44907 V 10.629929 h 11.23229 V -7.6e-7 H 282.31322 V 11.232292 H 239.7935 V -7.6e-7 H 183.10054 V 11.232292 H 140.58082 V -7.6e-7 H 83.887859 V 11.232292 H 41.36814 V -7.6e-7 H 1.2485998e-8 V 10.629929 H 11.23229 V 21.25986 H 1.2485998e-8 V 31.88979 H 11.23229 V 42.519719 H 1.2485998e-8 Z"
       id="path183"
       inkscape:connector-curvature="0" />
    <path
       style="fill:none;stroke:#000000;stroke-width:0.93750077px;stroke-linecap:butt;stroke-linejoin:miter;stroke-opacity:1"
       d="M -323.68137,53.149649 H 1.2485948e-8 V 42.519719 H -11.23229 V 31.889789 H 1.2485948e-8 V 21.259859 H -11.23229 V 10.629929 H 1.2485948e-8 V -1e-6 H -41.368139 V 11.232292 H -83.887856 V -1e-6 h -56.692974 v 11.232293 h -42.51972 V -1e-6 h -56.69296 v 11.232293 h -42.51972 V -1e-6 h -41.36814 v 10.62993 h 11.23229 v 10.62993 h -11.23229 v 10.62993 h 11.23229 v 10.62993 h -11.23229 z"
       id="path183-7"
       inkscape:connector-curvature="0" />
  </g>
  <!-- Left-->
  <g
     transform="translate(669.8627554999999, 22.5000185) "
     id="g95" />
  <!-- Right-->
  <g
     transform="translate(669.8627554999999, 75.6496685) "
     id="g99">
    <path
       style="fill:none;stroke:#000000;stroke-width:0.93750077px;stroke-linecap:butt;stroke-linejoin:miter;stroke-opacity:1"
       d="m -282.31323,312.44908 v 11.23229 h 42.51972 v -11.23229 h 56.69296 v 11.23229 h 42.51972 v -11.23229 h 56.692964 v 11.23229 h 42.519719 v -11.23229 h 30.135849 v -44.3091 H -7.5900357e-6 V 225.62026 H -11.232298 V 183.10054 H -7.5900357e-6 V 140.58082 H -11.232298 V 98.061103 H -7.5900357e-6 V 55.541384 H -11.232298 V 11.232292 H -41.368147 V -7.9838536e-7 H -83.887866 V 11.232292 H -140.58083 V -7.9838536e-7 h -42.51972 V 11.232292 h -56.69296 V -7.9838536e-7 h -42.51972 V 11.232292 h -30.13585 v 9.451783 34.857309 h -11.23229 v 42.519719 h 11.23229 v 42.519717 h -11.23229 v 42.51972 h 11.23229 v 42.51972 h -11.23229 v 42.51972 h 11.23229 v 44.3091 z"
       id="path237"
       inkscape:connector-curvature="0" />
  </g>
  <!-- Top-->
  <!-- Bottom-->
  <g
     transform="translate(346.181387, 75.6496685) "
     id="g107" />
  <path
     style="fill:none;stroke:#000000;stroke-width:0.93750077px;stroke-linecap:butt;stroke-linejoin:miter;stroke-opacity:1"
     d="M 44.964625,128.79932 H 346.18139 v -10.62993 h 11.23229 V 107.53946 H 346.18139 V 96.909529 h 11.23229 V 86.279599 H 346.18139 V 75.649667 h -44.3091 V 86.881959 H 259.35261 V 75.649667 H 216.83289 V 86.881959 H 174.31317 V 75.649667 H 131.79345 V 86.881959 H 89.273725 V 75.649667 h -44.3091 v 10.629932 h -11.2323 v 10.62993 h 11.2323 v 10.629931 h -11.2323 v 10.62993 h 11.2323 v 10.62993"
     id="path220-9"
     inkscape:connector-curvature="0" />
</svg>
